<?xml version="1.0" encoding="UTF-8" standalone="no"?>
<!-- Created with Inkscape (http://www.inkscape.org/) -->

<svg
   width="210mm"
   height="297mm"
   viewBox="0 0 210 297"
   version="1.1"
   id="svg5"
   xml:space="preserve"
   inkscape:version="1.2.2 (732a01da63, 2022-12-09)"
   sodipodi:docname="squiggle.svg"
   inkscape:export-filename="squiggle.png"
   inkscape:export-xdpi="300"
   inkscape:export-ydpi="300"
   xmlns:inkscape="http://www.inkscape.org/namespaces/inkscape"
   xmlns:sodipodi="http://sodipodi.sourceforge.net/DTD/sodipodi-0.dtd"
   xmlns="http://www.w3.org/2000/svg"
   xmlns:svg="http://www.w3.org/2000/svg"><sodipodi:namedview
     id="namedview7"
     pagecolor="#ffffff"
     bordercolor="#000000"
     borderopacity="0.25"
     inkscape:showpageshadow="2"
     inkscape:pageopacity="0.0"
     inkscape:pagecheckerboard="0"
     inkscape:deskcolor="#d1d1d1"
     inkscape:document-units="mm"
     showgrid="false"
     inkscape:zoom="0.74564394"
     inkscape:cx="193.79223"
     inkscape:cy="565.95377"
     inkscape:window-width="1920"
     inkscape:window-height="1017"
     inkscape:window-x="-8"
     inkscape:window-y="-8"
     inkscape:window-maximized="1"
     inkscape:current-layer="layer1" /><defs
     id="defs2"><clipPath
       clipPathUnits="userSpaceOnUse"
       id="clipPath390"><rect
         style="opacity:0.5;fill:#56a1a1;stroke:#ffffff;stroke-width:7.9375"
         id="rect392"
         width="93.677422"
         height="112.83871"
         x="28.387096"
         y="89.064514" /></clipPath></defs><g
     inkscape:label="Layer 1"
     inkscape:groupmode="layer"
     id="layer1"><path
       style="opacity:0.5;fill:none;stroke:none;stroke-width:2.13699994;stroke-opacity:0.996212;stroke-dasharray:none"
       id="path2277"
       d="m 9.7151694,225.3768 c 3.1495486,-3.52306 6.9081276,-6.46843 10.5241706,-9.4947 5.863476,-4.76897 11.729396,-9.53315 17.745812,-14.10849 4.203181,-3.19039 8.543919,-6.22991 13.291119,-8.5651 2.94214,-1.44726 4.044936,-1.78192 7.098654,-2.93763 3.35997,-1.13661 6.82077,-1.97312 10.346134,-2.38947 1.771012,-0.20915 3.636949,-0.36132 5.415169,-0.0511 0.638842,0.11146 1.239221,0.38275 1.85883,0.57412 -0.67506,-0.29924 -1.323012,-1.12621 -2.025179,-0.89771 -0.470323,0.15305 0.512323,0.88349 0.554522,1.37628 0.05997,0.70035 -0.07761,1.41343 -0.257448,2.09294 -0.867465,3.27773 -2.898796,6.01555 -4.79966,8.7437 -0.856555,1.03725 -1.655869,2.12456 -2.569663,3.11175 -5.16219,5.57686 -11.770698,9.88747 -18.044549,14.09858 -5.730311,3.67707 -11.561389,7.19758 -17.431138,10.64725 -3.443161,1.9233 -6.728576,4.08012 -9.822167,6.52291 -1.812263,1.50004 -2.805182,2.89261 -3.634575,5.06039 -0.135076,0.50546 -0.359697,1.10996 -0.242333,1.65131 0.306376,1.41317 1.541104,2.39488 2.718601,3.06675 1.663848,0.94939 3.380492,1.80311 5.070738,2.70466 2.859463,0.99051 5.869942,1.58553 8.906586,1.33057 1.854653,-0.15572 2.460623,-0.40881 4.268626,-0.8964 3.807955,-1.29281 7.12347,-3.59477 10.20998,-6.11857 2.645114,-1.93271 5.0194,-4.17563 7.359539,-6.4569 2.118701,-2.10195 4.151744,-4.28668 6.21929,-6.43867 2.794138,-2.80504 5.471642,-5.71985 8.153633,-8.631 2.337549,-2.44368 4.601689,-4.96972 7.125488,-7.22663 1.656162,-1.48103 2.115974,-1.79224 3.842999,-3.13487 3.095623,-2.45848 6.557714,-4.03492 10.343436,-5.07262 1.078677,-0.24854 2.145114,-0.52865 3.240291,-0.20583 0.291984,0.0861 1.098177,0.51913 0.840555,0.35698 -5.102932,-3.2118 -2.586437,-1.45983 -1.769915,-0.87793 0.23743,0.25638 0.510464,0.48389 0.712291,0.76915 1.088011,1.53778 1.578366,3.93977 1.547016,5.78381 -0.0123,0.72345 -0.134038,1.44089 -0.201057,2.16134 -0.492437,2.12213 -0.574657,2.94689 -1.521302,4.98404 -1.30992,2.81891 -3.179407,5.51497 -5.284395,7.79473 -0.766998,0.83068 -1.615401,1.58233 -2.423099,2.37349 -5.569067,4.88526 -12.123407,8.41694 -18.394781,12.28948 -4.198755,2.68992 -8.618786,5.29279 -12.046434,8.98345 -0.403505,0.43447 -0.754827,0.91463 -1.132239,1.37195 -1.177079,1.61282 -1.930509,3.44237 -1.9705,5.44428 0.0365,0.17935 0.0528,0.36403 0.109492,0.53806 0.543047,1.66697 4.592238,2.78211 4.80636,2.86023 0.479695,0.17502 2.979282,-0.41139 3.106724,-0.43661 5.492052,-1.20709 10.674133,-3.43024 15.725942,-5.84717 3.388675,-1.68001 6.658297,-3.63547 9.647801,-5.95999 1.977501,-1.53762 2.353651,-1.96892 4.189454,-3.68669 4.49543,-4.40788 8.116311,-9.57119 11.842112,-14.61594 4.23303,-5.71401 9.21788,-10.8843 14.82275,-15.26828 1.14444,-0.89515 2.34811,-1.7119 3.52216,-2.56785 2.8249,-1.79202 5.63295,-3.71657 8.71028,-5.07008 0.62896,-0.27664 1.25862,-0.63215 1.94355,-0.68679 0.5285,-0.0422 2.06515,0.45567 1.53701,0.40913 -0.69111,-0.0609 -1.35437,-0.30181 -2.03156,-0.45271 0.30865,0.85898 0.71393,1.68917 0.92595,2.57696 1.10872,4.64265 0.51638,9.99974 -0.59851,14.58208 -0.29541,1.21418 -0.70795,2.39683 -1.06192,3.59525 -1.28947,3.58354 -3.08986,6.93009 -5.35336,9.99145 -2.41815,3.27053 -5.28622,6.14382 -8.14704,9.01689 -5.40145,5.27921 -11.23342,10.08678 -16.74327,15.24662 -2.367467,2.26626 -4.945191,4.54071 -6.383051,7.55703 -0.1753,0.36774 -0.292566,0.76044 -0.438851,1.14064 -0.123838,0.6831 -0.36245,1.3448 -0.0067,2.03023 0.208859,0.40243 0.509333,0.78195 0.889518,1.02897 2.551994,1.65809 4.21154,3.05265 7.102724,2.90877 1.04031,-0.0518 2.05463,-0.34385 3.08195,-0.51578 1.24264,-0.49098 2.55045,-0.84145 3.72791,-1.47296 3.05586,-1.63896 6.832,-4.65532 9.37076,-6.88377 5.20749,-4.57094 9.58026,-9.62123 14.09203,-14.84561 5.72558,-7.23644 10.70218,-15.01556 16.01046,-22.55241 3.08699,-4.383 3.16795,-4.40515 6.29723,-8.47568 2.39212,-2.9687 5.12851,-5.59949 8.36214,-7.63381 1.30738,-0.82248 2.80476,-1.81058 4.47411,-1.60937 0.602,0.0725 1.10346,0.50306 1.65519,0.7546 -0.62909,-0.054 -1.65189,-0.74805 -1.88727,-0.16215 -0.35716,0.88899 0.69423,1.80041 0.84927,2.74584 0.19211,1.17146 0.22192,2.37004 0.18426,3.55655 -0.0714,2.24974 -0.67876,6.02066 -1.21289,8.19252 -0.38663,1.5721 -0.91332,3.1064 -1.36998,4.65959 -2.6433,7.51015 -6.63199,14.45537 -11.32376,20.86464 -0.94069,1.28505 -1.93848,2.52732 -2.90772,3.79098 -4.90227,6.15951 -10.08044,12.08927 -14.97664,18.25314 -1.12524,1.3489 -2.10698,2.79897 -3.03364,4.28712 0,0 3.31586,1.92056 3.31586,1.92056 v 0 c 0.85825,-1.50702 1.77901,-2.97355 2.85117,-4.3416 1.24061,-1.64344 2.3866,-3.18146 3.67614,-4.79833 3.64379,-4.56864 7.46327,-8.99641 11.07843,-13.5885 2.48535,-3.22618 3.37743,-4.26752 5.62585,-7.64599 3.55293,-5.33863 6.4642,-11.09354 8.65716,-17.12042 0.48754,-1.55002 1.05584,-3.07691 1.46262,-4.65006 0.48796,-1.88706 1.20611,-6.26504 1.31929,-8.22663 0.0576,-0.99845 0.10491,-5.32994 -0.77709,-6.42644 -1.20777,-1.50149 -2.99612,-2.42405 -4.49417,-3.63607 -0.58234,-0.1889 -1.13509,-0.54806 -1.74702,-0.5667 -1.66907,-0.0509 -3.14269,0.96623 -4.43726,1.82907 -3.19046,2.12643 -5.90762,4.79177 -8.24046,7.83144 -0.97922,1.32217 -1.98037,2.62838 -2.93765,3.96653 -6.44619,9.01088 -12.16835,18.54534 -19.16613,27.15956 -1.44755,1.69491 -2.85249,3.42715 -4.34265,5.08473 -3.13199,3.48386 -6.20028,6.63897 -9.76612,9.68005 -2.77506,2.36669 -6.23441,5.00422 -9.55453,6.63955 -1.1991,0.59063 -2.51831,0.8971 -3.77747,1.34567 -1.03477,0.12444 -2.06208,0.37629 -3.104301,0.37333 -0.620217,-0.003 -5.034557,-1.27119 -0.596164,0.7761 0.376579,0.1737 -0.706218,-0.47141 -0.942322,-0.81235 -0.4045,-0.58409 -0.197913,-1.232 -0.118348,-1.84846 0.129733,-0.36819 0.230664,-0.74784 0.389202,-1.10458 1.337096,-3.00873 3.865473,-5.28342 6.144353,-7.56424 5.42282,-5.23638 11.2142,-10.07566 16.61813,-15.33415 2.88968,-2.88281 5.78438,-5.75958 8.22263,-9.04971 2.28893,-3.08866 4.10327,-6.46503 5.41497,-10.07958 0.35886,-1.20889 0.77868,-2.40133 1.07659,-3.62666 1.12085,-4.61024 1.69319,-9.98788 0.79658,-14.68358 -0.17324,-0.90733 -0.50905,-1.77594 -0.76358,-2.6639 -1.48585,-1.10118 -2.85645,-2.37787 -4.45754,-3.30353 -1.17899,-0.68163 -2.50937,0.0822 -3.50906,0.56627 -3.01176,1.45844 -5.76726,3.41129 -8.56248,5.22822 -1.16881,0.86772 -2.36481,1.69997 -3.50645,2.60315 -3.59192,2.84166 -6.91842,5.97223 -10.03118,9.32789 -0.9449,1.01863 -1.88891,2.03982 -2.77834,3.10722 -0.76156,0.91396 -1.44742,1.88842 -2.171123,2.83264 -3.743621,5.01031 -7.411921,10.11371 -11.890177,14.51045 -0.684059,0.63441 -1.349062,1.29001 -2.052179,1.90323 -3.525666,3.07489 -7.519048,5.59029 -11.70264,7.66444 -5.06431,2.39536 -10.251541,4.62691 -15.78484,5.6842 -0.638001,0.0909 -1.271609,0.22138 -1.914002,0.27282 -0.40596,0.0325 -1.464659,-0.34852 -1.221583,-0.0217 0.607869,0.81715 1.675521,1.15838 2.505831,1.74815 0.0486,0.0345 -0.415372,-0.13664 -0.656555,-0.57774 -0.07689,-0.14062 -0.111379,-0.30056 -0.167069,-0.45085 -0.07592,-1.92281 0.644414,-3.70678 1.715323,-5.28352 0.35638,-0.45443 0.68657,-0.93068 1.069141,-1.3633 3.304456,-3.73671 7.66222,-6.35658 11.804933,-9.03526 6.312654,-3.87026 12.908513,-7.3972 18.49505,-12.31843 0.822219,-0.7972 1.687621,-1.55215 2.466657,-2.39161 1.522331,-1.64039 2.641267,-3.21423 3.816414,-5.11204 1.550037,-2.50326 2.67263,-4.87775 3.20594,-7.79031 0.08887,-0.73202 0.231646,-1.45948 0.266613,-2.19604 0.08946,-1.88445 -0.359923,-4.32402 -1.350039,-5.96663 -0.184894,-0.30674 -0.444379,-0.56181 -0.666568,-0.84271 -1.848919,-1.45172 -1.22596,-1.02222 -4.892055,-2.94667 -0.504598,-0.26488 -1.310963,-0.38281 -1.867363,-0.36161 -0.698022,0.0266 -1.642992,0.29148 -2.301402,0.44885 -3.737909,1.13006 -7.272848,2.77849 -10.322028,5.2595 -1.70539,1.35243 -2.193983,1.69812 -3.837284,3.17625 -2.524,2.27031 -4.818927,4.78257 -7.165398,7.23125 -2.719594,2.88062 -5.426419,5.77389 -8.221697,8.58166 -2.079963,2.13775 -4.153765,4.2815 -6.237597,6.41549 -2.317739,2.28395 -4.688683,4.50645 -7.30872,6.44765 -3.051479,2.47929 -6.295842,4.78945 -10.075542,6.01468 -1.740935,0.43628 -2.443059,0.6965 -4.221356,0.82082 -3.019525,0.2111 -6.006786,-0.41938 -8.82181,-1.47583 0.458175,0.33254 1.70633,0.53889 1.374524,0.99759 -0.311445,0.43056 -2.121933,-1.60174 -2.273478,-1.80379 -0.199371,-0.26583 -0.396529,-0.54809 -0.494299,-0.86566 -0.07608,-0.24711 -0.04124,-0.5188 -0.01099,-0.77557 0.03044,-0.25833 0.127684,-0.50431 0.191525,-0.75647 0.768306,-2.11679 1.710016,-3.45377 3.456171,-4.92412 3.036764,-2.45341 6.264626,-4.62955 9.655885,-6.56826 5.813047,-3.50105 11.594486,-7.06045 17.27571,-10.77192 3.753966,-2.5636 7.518365,-5.11442 11.089523,-7.93254 2.399673,-1.89367 4.929182,-4.0002 7.033604,-6.23245 0.930008,-0.98649 1.739297,-2.08019 2.608945,-3.12029 1.969698,-2.75205 4.043069,-5.50286 5.064008,-8.78707 0.214411,-0.68973 0.838103,-3.00705 -0.05601,-3.79867 -1.318527,-1.16741 -2.986325,-1.86741 -4.479488,-2.80112 -0.619104,-0.15699 -1.224105,-0.38737 -1.857306,-0.47096 -1.751666,-0.23123 -3.631221,-0.0424 -5.360032,0.18658 -3.523592,0.46665 -6.987247,1.30549 -10.341298,2.48061 -3.056088,1.1724 -4.171209,1.51734 -7.115006,2.98127 -4.750868,2.36258 -9.093387,5.41511 -13.304546,8.62104 -6.035662,4.57214 -11.940968,9.31207 -17.825051,14.07716 -3.686293,3.04537 -7.4670388,6.01062 -10.8949479,9.34793 0,0 3.3929875,2.03714 3.3929875,2.03714 z" /><path
       style="opacity:1;fill:#f09c96;fill-opacity:1;stroke:none;stroke-width:2.137;stroke-dasharray:none;stroke-opacity:1"
       id="path3107"
       d="m 18.52849,136.76374 c 2.744969,-4.39482 5.576161,-8.73757 8.432901,-13.06086 3.744417,-5.56338 7.694556,-10.98427 12.015213,-16.11418 0.524751,-0.57532 1.640506,-1.82522 2.246495,-2.3964 0.302948,-0.28555 0.588277,-0.60718 0.954037,-0.80602 0.346057,-0.18812 0.742775,-0.29112 1.134785,-0.32951 0.982673,-0.0962 1.735129,0.20584 2.661779,0.45995 0.412076,0.23251 1.697287,0.8038 1.236224,0.69754 -0.717373,-0.16532 -1.312442,-1.06122 -2.025846,-0.87953 -0.476263,0.1213 0.635857,0.753 0.903044,1.1655 0.994053,1.53465 1.230014,3.0455 1.531504,4.8114 0.0346,0.71468 0.110564,1.42855 0.103793,2.14404 -0.0304,3.21281 -0.637519,6.73314 -1.458248,9.83231 -0.2437,0.92024 -0.541489,1.8253 -0.812234,2.73795 -0.30924,0.92863 -0.608997,1.86046 -0.927725,2.78588 -0.883726,2.56586 -1.413449,4.05151 -2.495587,6.57688 -1.36802,3.19253 -2.964235,6.26579 -4.589798,9.33164 -2.489502,4.64967 -5.649002,8.87433 -8.578797,13.24318 -1.240081,1.79169 -2.139413,3.73659 -2.49333,5.88625 -0.294535,1.19731 -0.284625,2.39826 -0.221242,3.61853 0.120876,0.74089 0.09189,1.56791 0.474882,2.24228 0.224414,0.39515 0.477306,0.62211 0.786389,0.94902 1.823056,1.3473 3.792268,2.99674 6.134973,3.0901 0.243264,0.01 0.486183,-0.0266 0.729274,-0.0399 1.665735,-0.0947 3.068405,-0.96831 4.391459,-1.90453 1.522441,-1.09539 2.758244,-2.50254 3.940466,-3.9436 2.658549,-3.41894 4.868907,-7.17042 7.0988,-10.8777 2.377247,-3.87025 4.386082,-7.94359 6.528908,-11.94303 2.561775,-5.14038 5.236215,-10.22628 8.022937,-15.2484 3.312583,-5.86545 7.117831,-11.43299 11.159347,-16.8159 1.611497,-2.11151 3.284664,-4.18895 5.107929,-6.12366 0.82064,-0.87079 1.573363,-1.83102 2.790306,-2.15609 0.316008,-0.0844 0.653143,0.0367 0.979713,0.0551 -0.829821,-0.14788 -1.928482,-1.07274 -2.489462,-0.44363 -0.622324,0.69789 0.370858,1.84077 0.410546,2.77499 0.05491,1.29259 -0.02185,2.58976 -0.127871,3.87917 -0.239881,2.91779 -0.842023,6.48846 -1.461955,9.3323 -0.354584,1.6266 -0.802095,3.23154 -1.203142,4.84731 -2.511031,8.90117 -6.382052,17.34691 -10.7026,25.50119 -0.853482,1.61079 -1.755486,3.19541 -2.633228,4.79311 -4.249293,7.61264 -8.871204,15.00413 -13.528498,22.37072 -2.860124,4.52971 -6.111181,8.80473 -8.670808,13.51815 -0.876771,1.84086 -1.894785,3.68009 -2.273017,5.70868 -0.186957,1.00272 -0.13366,1.31183 -0.113054,2.29213 0.05809,0.2927 0.05895,0.60287 0.174263,0.87809 0.124902,0.29809 0.267676,0.62542 0.533024,0.80994 2.605349,1.81173 4.52451,3.2697 7.636179,2.73361 0.750546,-0.12931 1.462934,-0.42425 2.194399,-0.63638 0.76632,-0.36148 1.56786,-0.65617 2.298959,-1.08443 1.806845,-1.05841 3.551513,-2.55368 5.006377,-4.03169 0.975651,-0.99117 1.935181,-2.00636 2.781342,-3.11014 2.37631,-3.09977 4.277389,-6.56462 6.258841,-9.91189 3.874664,-7.01881 7.73294,-14.05862 11.129203,-21.32525 2.135603,-4.56932 2.32941,-5.1989 4.280902,-9.93388 3.886139,-10.74926 7.961638,-21.43094 12.616011,-31.87449 2.901384,-6.51018 3.724288,-8.02417 6.756658,-14.137 1.72441,-3.22222 2.99951,-5.78822 4.94258,-8.811658 0.57621,-0.896596 1.15615,-1.79936 1.8537,-2.605172 0.46096,-0.532498 0.97447,-1.054815 1.59802,-1.382263 0.41612,-0.218522 1.86591,-0.223803 1.39708,-0.190582 -0.60489,0.04287 -1.20395,0.146367 -1.80592,0.219554 0.42937,1.334391 0.97664,2.636446 1.2881,4.003177 2.0015,8.782674 1.20459,18.049554 -0.11063,26.859694 -0.36123,2.41978 -0.85253,4.81836 -1.2788,7.22753 -1.6831,8.12396 -4.13123,16.08555 -7.35077,23.73338 -1.88101,4.46822 -3.02416,6.63138 -5.167113,10.99078 -0.934463,1.76488 -1.85222,3.53871 -2.803392,5.29465 -1.972797,3.64194 -3.419139,6.18271 -5.528477,9.71172 -2.25226,3.76812 -4.620416,7.4634 -6.876695,11.22925 -1.517021,2.54371 -2.936637,5.14785 -4.06358,7.89013 -0.571248,1.39006 -0.891637,2.19241 -1.083632,3.66225 -0.06596,0.50497 -0.04252,1.01762 -0.06378,1.52643 0.201425,1.04862 0.207245,1.58783 0.738672,2.51188 0.187547,0.3261 0.413718,0.63798 0.690753,0.89248 0.286832,0.26351 0.621315,0.48263 0.97755,0.64012 1.514774,0.6697 2.984035,1.56249 4.617892,1.83368 0.676923,0.11235 1.278311,-0.49931 1.917467,-0.74896 0.809133,-0.49404 1.648005,-0.94239 2.427404,-1.48213 4.95726,-3.43291 9.249823,-7.889 12.330981,-13.08374 1.18908,-2.00477 2.15096,-4.13587 3.22644,-6.20381 6.87509,-14.78177 12.70423,-30.01089 18.43667,-45.26159 5.52282,-13.94389 11.60063,-27.69388 18.84062,-40.84077 1.06313,-1.9305 2.20222,-3.81818 3.30333,-5.727267 1.60997,-2.574785 3.19217,-5.260409 5.03079,-7.692734 0.57622,-0.762275 1.17225,-1.517253 1.8562,-2.184559 0.44828,-0.437377 0.93028,-0.890677 1.51789,-1.107411 0.39823,-0.146881 1.67614,0.205015 1.2709,0.0788 -0.61674,-0.192093 -1.27835,-0.186799 -1.91752,-0.280199 0.4256,1.260586 0.98976,2.482596 1.27681,3.781755 1.99127,9.012045 0.82059,19.880765 -1.40213,28.720835 -0.70893,2.81953 -1.69606,5.56171 -2.54408,8.34257 -3.78597,10.88787 -9.47457,20.93789 -15.1052,30.94468 -4.36355,7.75493 -3.59721,6.37841 -7.86443,13.68285 -2.73932,4.67265 -5.32258,9.45583 -7.47252,14.43255 -0.70041,1.62131 -1.78855,4.34755 -2.1632,6.16667 -0.16901,0.82067 -0.17399,1.66673 -0.26099,2.5001 0.22142,1.88617 0.0996,2.45334 1.00187,4.12927 1.45585,2.7042 4.78803,4.46544 7.4179,5.52655 0.68747,0.27738 1.4775,0.12344 2.21625,0.18515 0.90915,-0.27412 1.87421,-0.40564 2.72746,-0.82237 2.58749,-1.26374 4.79726,-3.35512 6.76598,-5.38513 2.72237,-2.80713 5.28042,-6.00699 7.5323,-9.19279 1.25429,-1.77447 2.38956,-3.63015 3.58434,-5.44523 1.08891,-2.12967 2.26194,-4.21839 3.26671,-6.38901 1.99795,-4.31621 4.0668,-9.86805 5.63422,-14.3467 2.29358,-6.55352 4.26715,-13.21414 6.27776,-19.85775 2.48994,-8.18527 4.72575,-16.44801 7.69383,-24.48004 2.0162,-5.45609 2.75036,-6.96235 4.99165,-12.12022 0.71767,-1.4829 1.38367,-2.99193 2.15302,-4.44869 0.95548,-1.8092 2.83746,-6.020188 5.82534,-4.682293 0.26204,0.11734 -0.82332,0.214233 -0.71511,0.480181 0.56318,1.384092 1.62701,2.506872 2.44051,3.760312 1.72355,3.56975 3.06158,5.89501 4.00842,9.85637 1.20888,5.05767 1.33637,9.2874 0.69407,14.49835 -0.87521,7.10048 -2.35761,10.88022 -4.43993,17.69395 -4.30138,12.36527 -10.42568,23.94764 -16.63306,35.43179 -1.48999,2.85469 -2.94765,5.74834 -3.96292,8.81355 -0.26224,0.79173 -0.51733,1.58998 -0.67913,2.40817 -0.40071,2.02633 -0.24972,2.66803 -0.15781,4.70572 0.17928,0.80296 0.3065,1.61935 0.53784,2.40889 0.75303,2.56995 2.11783,5.30288 3.83216,7.37747 0.28304,0.34251 0.61065,0.64561 0.91597,0.96841 2.09399,1.66183 0.54451,0.50565 4.96395,2.99969 0,0 -2.94097,-2.35281 -2.94097,-2.35281 v 0 c 2.63975,1.61892 3.05584,1.9395 1.37876,0.76295 -0.33271,-0.31773 -0.68892,-0.61254 -0.99812,-0.95319 -1.85492,-2.04359 -3.26165,-4.68396 -4.06244,-7.31431 -0.23359,-0.76731 -0.36057,-1.56311 -0.54085,-2.34466 -0.11819,-2.00829 -0.2681,-2.62236 0.0733,-4.62955 0.68137,-4.00639 2.6309,-7.68987 4.24428,-11.36527 5.64581,-11.81591 11.45765,-23.59358 15.64617,-36.03108 2.58433,-8.32407 5.4529,-16.52831 5.33135,-25.38338 -0.0798,-5.81284 -1.88908,-11.22796 -4.49134,-16.34839 -2.40674,-4.197214 -2.1598,-4.929737 -7.305,-7.511123 -0.60726,-0.304668 -1.42862,-0.134832 -2.03016,0.180986 -0.74344,0.390321 -1.29368,1.105304 -1.75554,1.806559 -0.95716,1.453318 -3.05962,6.727288 -3.57435,7.956078 -2.48422,6.30673 -5.03402,12.60456 -7.28371,19.00008 -1.4608,4.1528 -2.52636,7.72347 -3.74604,11.93198 -0.55169,1.90361 -1.07717,3.81472 -1.61575,5.72208 -3.87807,13.90055 -7.77102,27.99363 -15.11227,40.5439 -1.21094,1.79842 -2.35368,3.64469 -3.63282,5.39526 -2.30589,3.15571 -4.93875,6.28572 -7.78083,8.9829 -2.10108,1.99396 -4.3629,3.89514 -7.08041,5.00702 -0.87768,0.35911 -1.849,0.42235 -2.7735,0.63352 -0.72913,-0.1055 -1.56169,-0.7054 -2.1874,-0.3165 -0.43724,0.27176 1.5869,1.29067 1.26025,0.89276 -0.40773,-0.49666 -1.05797,-0.74152 -1.51057,-1.19768 -1.53074,-1.54278 -2.20691,-3.43315 -2.37709,-5.56749 0.0486,-0.83108 0.0199,-1.67032 0.14586,-2.49324 0.29509,-1.92751 1.17454,-4.53639 1.82805,-6.29913 1.88746,-5.09115 4.27806,-9.97849 6.86148,-14.74832 3.85922,-7.12151 3.45559,-6.42779 7.59395,-13.83903 5.60615,-10.03988 11.43071,-20.02838 15.12411,-30.98146 0.86868,-2.77682 1.85988,-5.51823 2.60602,-8.33045 2.3719,-8.93971 3.63941,-19.11222 2.41341,-28.34559 -0.16685,-1.25661 -0.53437,-2.478321 -0.80156,-3.717481 -1.44992,-1.090882 -2.75727,-2.403022 -4.34977,-3.272649 -0.97754,-0.533816 -2.30883,1.07878 -2.64628,1.48618 -2.56905,3.101557 -4.11017,6.936108 -6.15105,10.360596 -2.35562,4.530094 -4.33022,8.254974 -6.57404,12.900564 -1.2481,2.58407 -2.44108,5.19446 -3.64205,7.80076 -3.98443,8.64689 -7.90518,17.3287 -11.45895,26.16335 -1.14555,2.75976 -2.33342,5.50233 -3.43666,8.27928 -0.94446,2.37729 -1.79172,4.7921 -2.7056,7.18131 -3.82961,10.01193 -7.8129,19.98904 -12.69098,29.54571 -1.16116,2.00615 -2.21766,4.07663 -3.483497,6.01844 -3.278809,5.02975 -7.671752,9.49843 -12.813136,12.63116 -0.817597,0.49818 -1.699662,0.88189 -2.549493,1.32283 -3.333837,0.93511 -1.761993,-0.10625 -0.139946,2.22922 0.217096,0.31258 -0.71256,-0.2905 -1.017008,-0.51885 -0.614,-0.46055 -1.038222,-1.18089 -1.295329,-1.88607 -0.155059,-0.42527 -0.220517,-0.87806 -0.330776,-1.31708 -0.0055,-0.50001 -0.05714,-1.00164 -0.01651,-1.50002 0.113948,-1.3978 0.423992,-2.34548 0.900292,-3.67837 0.99532,-2.78533 2.312969,-5.43786 3.741409,-8.0235 4.984642,-8.80132 10.268104,-17.44035 14.778544,-26.5045 1.60819,-3.2407 3.84591,-7.62426 5.25788,-10.96653 3.24669,-7.6852 5.4207,-15.79004 7.04148,-23.95715 1.89212,-11.15735 3.87004,-22.53063 2.12063,-33.849084 -0.20462,-1.323888 -0.57939,-2.615817 -0.86909,-3.923724 -1.45685,-1.231331 -2.71061,-2.754206 -4.37055,-3.693996 -0.94219,-0.533429 -2.66759,1.850785 -2.78704,2.021502 -0.61262,0.875601 -1.11424,1.825085 -1.62054,2.766176 -1.71457,3.18701 -2.84489,5.800176 -4.38772,9.147376 -6.7301,15.20789 -13.229741,30.51808 -19.709416,45.83381 -4.551211,10.6833 -9.318402,21.29975 -15.244595,31.30751 -1.11656,1.76131 -2.163101,3.56902 -3.349683,5.28394 -2.954002,4.26931 -6.697689,8.64331 -11.345405,11.15831 -0.739727,0.40029 -1.5436,0.66858 -2.315403,1.00287 -1.865244,0.4319 -2.271226,0.72125 -4.12197,0.46343 -0.51824,-0.0722 -1.80834,-0.85653 -1.510787,-0.42613 0.475972,0.68849 1.363176,0.99609 2.132597,1.32557 0.27168,0.11634 -0.444018,-0.40564 -0.587586,-0.66396 -0.140261,-0.25238 -0.162277,-0.5542 -0.243417,-0.8313 -0.07052,-0.94259 -0.144301,-1.25668 0.0053,-2.22789 0.310552,-2.01569 1.295996,-3.85813 2.10188,-5.70209 2.441556,-4.76132 5.473467,-9.17014 8.312239,-13.69789 4.546211,-7.44165 9.033021,-14.91752 13.171877,-22.59666 5.223697,-9.74071 10.369608,-19.64328 13.466783,-30.30091 0.412404,-1.61547 0.864505,-3.22131 1.23721,-4.8464 0.601795,-2.62397 1.333521,-6.55687 1.690061,-9.25527 0.01585,-0.12004 0.743942,-5.87054 0.275746,-6.57947 -0.930291,-1.40863 -2.586517,-2.16995 -3.879773,-3.25492 -0.330629,0.0518 -0.686242,0.0191 -0.991886,0.15539 -1.088835,0.48559 -1.88839,1.5352 -2.640978,2.38001 -1.771973,1.9891 -3.449453,4.06178 -5.042461,6.1966 -3.943554,5.46565 -7.649049,11.10579 -11.061584,16.91895 -2.84617,4.98846 -5.651502,10.00078 -8.316158,15.08915 -2.11636,4.00714 -4.038285,8.12018 -6.44379,11.97035 -2.233625,3.68737 -4.449558,7.42885 -7.287053,10.69332 -1.256049,1.34279 -2.50331,2.71851 -3.999116,3.80197 -1.292109,0.90199 -2.655126,1.68775 -4.281088,1.70291 -0.680559,-0.0196 -0.70145,0.0184 -1.361146,-0.15333 -0.203642,-0.053 -0.775068,-0.31332 -0.599821,-0.19684 5.13883,3.41585 2.958343,1.69791 1.762884,1.02504 -0.201179,-0.19138 -0.637834,-0.5888 -0.811562,-0.82106 -0.453895,-0.60681 -0.449744,-1.40191 -0.567706,-2.11646 -0.07484,-1.19707 -0.08142,-2.37773 0.166992,-3.55941 0.265835,-2.11918 1.041262,-4.06885 2.178005,-5.8813 2.750712,-4.49032 5.815923,-8.78746 8.303945,-13.43717 3.096961,-6.0522 6.04824,-12.20945 8.134321,-18.6951 0.288899,-0.911 0.60761,-1.81309 0.866696,-2.73302 0.511127,-1.81484 0.778721,-3.21749 1.069252,-5.07152 0.206772,-1.31952 0.488315,-3.43123 0.534128,-4.78877 0.02429,-0.71958 -0.0295,-1.43967 -0.04425,-2.15951 -0.184041,-1.41547 -0.205589,-2.26283 -0.69833,-3.58977 -1.219454,-3.28398 -3.963848,-4.53686 -7.03965,-5.99324 -1.023567,-0.22991 -1.751235,-0.5016 -2.818818,-0.31514 -1.900499,0.33195 -3.066367,2.51786 -4.25623,3.82637 -4.05429,5.33104 -7.778083,10.90086 -11.665306,16.35307 -2.919882,4.27137 -5.822725,8.58444 -9.154009,12.54943 0,0 3.362582,2.06059 3.362582,2.06059 z"
       inkscape:export-filename="squiggle.png"
       inkscape:export-xdpi="300"
       inkscape:export-ydpi="300" /></g></svg>
